<svg width="278" height="57" viewBox="0 0 278 57" fill="none" xmlns="http://www.w3.org/2000/svg">
<path d="M41.0286 21.7405V24.4901H29.7705V33.2216H38.9108V35.9712H29.7705V47.6381H26.3893V21.7405H41.0286ZM63.17 27.2767V47.6381H59.7888V44.6284C59.1448 45.6688 58.2406 46.4862 57.0764 47.0807C55.937 47.6504 54.6737 47.9353 53.2865 47.9353C51.7012 47.9353 50.2769 47.6133 49.0136 46.9693C47.7503 46.3005 46.7471 45.3096 46.004 43.9968C45.2857 42.684 44.9265 41.0863 44.9265 39.2037V27.2767H48.2705V38.7578C48.2705 40.7643 48.7783 42.3124 49.7939 43.4023C50.8095 44.4674 52.1966 45 53.9553 45C55.7636 45 57.1879 44.4427 58.2283 43.328C59.2686 42.2133 59.7888 40.5909 59.7888 38.4606V27.2767H63.17Z" fill="#4EA842"/>
<path d="M82.998 32.59V35.451H68.1729V32.59H82.998ZM109.296 21.7405V47.6381H105.915V35.8969H92.7247V47.6381H89.3435V21.7405H92.7247V33.1102H105.915V21.7405H109.296ZM116.816 23.9699C116.172 23.9699 115.627 23.7469 115.181 23.3011C114.735 22.8552 114.512 22.3103 114.512 21.6662C114.512 21.0222 114.735 20.4772 115.181 20.0314C115.627 19.5855 116.172 19.3626 116.816 19.3626C117.435 19.3626 117.955 19.5855 118.376 20.0314C118.822 20.4772 119.045 21.0222 119.045 21.6662C119.045 22.3103 118.822 22.8552 118.376 23.3011C117.955 23.7469 117.435 23.9699 116.816 23.9699ZM118.451 27.2767V47.6381H115.07V27.2767H118.451ZM127.594 30.5836C128.189 29.4194 129.031 28.5153 130.121 27.8712C131.236 27.2272 132.586 26.9052 134.171 26.9052V30.3978H133.279C129.489 30.3978 127.594 32.4538 127.594 36.5657V47.6381H124.213V27.2767H127.594V30.5836ZM156.652 36.6771C156.652 37.3212 156.615 38.0023 156.541 38.7207H140.266C140.39 40.7271 141.071 42.3 142.31 43.4395C143.573 44.5541 145.097 45.1115 146.88 45.1115C148.341 45.1115 149.555 44.7771 150.521 44.1083C151.512 43.4147 152.206 42.4982 152.602 41.3587H156.243C155.698 43.3156 154.608 44.9133 152.974 46.1518C151.339 47.3656 149.308 47.9725 146.88 47.9725C144.948 47.9725 143.214 47.539 141.678 46.672C140.167 45.805 138.978 44.5789 138.111 42.9936C137.244 41.3835 136.811 39.5257 136.811 37.4202C136.811 35.3148 137.232 33.4694 138.074 31.884C138.916 30.2987 140.093 29.085 141.604 28.2428C143.14 27.3758 144.898 26.9423 146.88 26.9423C148.812 26.9423 150.521 27.3634 152.008 28.2056C153.494 29.0478 154.633 30.212 155.426 31.6983C156.243 33.1597 156.652 34.8193 156.652 36.6771ZM153.159 35.9712C153.159 34.6831 152.874 33.5808 152.305 32.6643C151.735 31.723 150.955 31.0171 149.964 30.5464C148.998 30.051 147.92 29.8033 146.731 29.8033C145.022 29.8033 143.561 30.3483 142.347 31.4382C141.158 32.5281 140.477 34.0391 140.303 35.9712H153.159Z" fill="#232B2B"/>
</svg>
