<svg width="210" height="249" viewBox="0 0 210 249" fill="none" xmlns="http://www.w3.org/2000/svg">
<g clip-path="url(#clip0_545_47)">
<circle cx="198.5" cy="105.5" r="81.5" fill="white"/>
<path d="M14.0552 287.58C13.7372 317.874 23.4331 347.425 41.6366 371.642C59.8401 395.859 85.532 413.386 114.721 421.5C143.91 429.614 174.961 427.861 203.051 416.513C231.141 405.165 254.697 384.858 270.059 358.746C285.421 332.635 291.73 302.18 288.004 272.114C284.278 242.049 270.727 214.055 249.456 192.483C228.186 170.91 177.885 156.967 147.875 152.819C96.5478 139.524 69.5478 228.51 69.5478 272.114L151.548 289.023L14.0552 287.58Z" fill="white"/>
</g>
<defs>
<clipPath id="clip0_545_47">
<rect width="210" height="249" fill="white"/>
</clipPath>
</defs>
</svg>
