<svg width="213" height="249" viewBox="0 0 213 249" fill="white" xmlns="http://www.w3.org/2000/svg">
    <path
        d="M180.88 119.5C165.06 119.5 152.187 106.609 151.886 90.5747C167.441 92.6551 177.235 88.1583 183.331 80.1145C189.463 72.024 191.786 60.4298 192.644 48.6614C193.203 40.9949 193.142 33.18 193.087 26.1653C193.058 22.4212 193.031 18.9051 193.1 15.7611C193.201 11.2146 193.503 7.46161 194.268 4.8557C194.65 3.55403 195.136 2.58378 195.731 1.94486C196.311 1.3224 197.007 1 197.88 1C199.7 1 201.289 2.00854 202.689 3.95781C204.094 5.91388 205.263 8.76141 206.224 12.286C208.145 19.3291 209.197 28.9198 209.741 39.0636C210.556 54.269 210.227 70.622 210.012 81.363C209.94 84.9531 209.88 87.9162 209.88 90C209.88 106.3 196.889 119.5 180.88 119.5Z"
        fill="#D9D9D9" stroke="black" />
    <mask id="path-2-inside-1_543_155" fill="white">
        <path
            d="M173.133 58.3969C172.205 59.2863 171.581 60.4523 171.342 61.7472C171.102 63.0421 171.257 64.4078 171.787 65.6717C172.317 66.9356 173.198 68.0409 174.318 68.8477C175.439 69.6546 176.749 70.1268 178.082 70.2047C179.416 70.2825 180.714 69.9626 181.811 69.2852C182.908 68.6078 183.756 67.6035 184.247 66.3992C184.738 65.1949 184.85 63.8447 184.569 62.5194C184.288 61.1941 183.627 59.9532 182.669 58.9536L177.976 63.4509L173.133 58.3969Z" />
    </mask>
    <path
        d="M173.133 58.3969C172.205 59.2863 171.581 60.4523 171.342 61.7472C171.102 63.0421 171.257 64.4078 171.787 65.6717C172.317 66.9356 173.198 68.0409 174.318 68.8477C175.439 69.6546 176.749 70.1268 178.082 70.2047C179.416 70.2825 180.714 69.9626 181.811 69.2852C182.908 68.6078 183.756 67.6035 184.247 66.3992C184.738 65.1949 184.85 63.8447 184.569 62.5194C184.288 61.1941 183.627 59.9532 182.669 58.9536L177.976 63.4509L173.133 58.3969Z"
        fill="#D9D9D9" stroke="black" stroke-width="2" mask="url(#path-2-inside-1_543_155)" />
    <mask id="path-3-inside-2_543_155" fill="white">
        <path
            d="M185.423 67.8133C186.8 66.3929 187.703 64.5758 188.018 62.5919C188.334 60.608 188.048 58.5464 187.197 56.6678C186.346 54.7891 184.967 53.1778 183.236 52.0376C181.505 50.8974 179.498 50.2795 177.471 50.2621C175.443 50.2447 173.485 50.8285 171.844 51.9397C170.203 53.0509 168.953 54.6396 168.253 56.5049C167.552 58.3703 167.432 60.4284 167.907 62.4191C168.383 64.4098 169.432 66.2436 170.924 67.6887L177.882 60.5069L185.423 67.8133Z" />
    </mask>
    <path
        d="M185.423 67.8133C186.8 66.3929 187.703 64.5758 188.018 62.5919C188.334 60.608 188.048 58.5464 187.197 56.6678C186.346 54.7891 184.967 53.1778 183.236 52.0376C181.505 50.8974 179.498 50.2795 177.471 50.2621C175.443 50.2447 173.485 50.8285 171.844 51.9397C170.203 53.0509 168.953 54.6396 168.253 56.5049C167.552 58.3703 167.432 60.4284 167.907 62.4191C168.383 64.4098 169.432 66.2436 170.924 67.6887L177.882 60.5069L185.423 67.8133Z"
        fill="#D9D9D9" stroke="black" stroke-width="2" mask="url(#path-3-inside-2_543_155)" />
    <path
        d="M145.281 39.9902L145.88 40.1107V39.5C145.88 28.608 146.495 18.7571 147.486 11.6382C147.982 8.07506 148.57 5.21714 149.214 3.26045C149.537 2.27872 149.865 1.55357 150.185 1.08378C150.519 0.593147 150.759 0.5 150.88 0.5C151.001 0.5 151.241 0.593147 151.575 1.08378C151.895 1.55357 152.223 2.27872 152.546 3.26045C153.19 5.21714 153.778 8.07506 154.274 11.6382C155.265 18.7571 155.88 28.608 155.88 39.5C155.88 50.392 155.265 60.2429 154.274 67.3618C153.778 70.9249 153.19 73.7829 152.546 75.7395C152.223 76.7213 151.895 77.4464 151.575 77.9162C151.253 78.39 151.018 78.4931 150.893 78.4997C150.885 78.498 150.867 78.4938 150.835 78.4838C150.776 78.4651 150.694 78.4338 150.588 78.3867C150.375 78.2928 150.092 78.1487 149.742 77.9545C149.044 77.5668 148.108 76.9955 146.988 76.2682C144.75 74.8145 141.795 72.751 138.563 70.3192C132.095 65.4515 124.55 59.1319 119.429 53.2953C116.865 50.3718 114.941 47.6059 114.048 45.2303C113.158 42.8631 113.328 41.0126 114.724 39.7093C116.185 38.3455 119.109 37.4451 124.108 37.3906C129.077 37.3365 135.984 38.1182 145.281 39.9902Z"
        fill="#D9D9D9" stroke="black" />
    <path
        d="M168.896 26.2037L168.902 26.1765L168.904 26.1489C168.926 25.8923 169.058 25.5571 169.338 25.1481C169.613 24.745 170.008 24.3052 170.501 23.8453C171.486 22.9259 172.821 21.9654 174.255 21.0985C175.687 20.2326 177.2 19.4704 178.535 18.9422C179.897 18.4036 180.991 18.142 181.621 18.1954C182.227 18.2467 183.035 18.6516 183.942 19.3697C184.832 20.0746 185.756 21.0313 186.585 22.0815C187.414 23.1313 188.138 24.2597 188.636 25.3007C189.142 26.3592 189.383 27.2609 189.331 27.8813C189.225 29.1284 188.185 30.3768 186.261 30.7257C184.377 31.0675 181.635 30.5316 178.256 28.154C178.256 28.0723 178.252 27.9943 178.243 27.9205C178.226 27.7678 178.185 27.598 178.089 27.4486C177.983 27.2829 177.819 27.1604 177.611 27.1206C177.424 27.0848 177.251 27.1254 177.121 27.1746C176.866 27.2707 176.602 27.4662 176.353 27.6814C176.093 27.9058 175.805 28.1912 175.501 28.5119C175.02 29.0202 174.474 29.6411 173.906 30.2875C173.759 30.455 173.611 30.6242 173.461 30.7936C172.73 31.623 171.974 32.4635 171.252 33.1714C170.523 33.8875 169.864 34.4315 169.328 34.7016C169.061 34.8361 168.867 34.8808 168.735 34.8768C168.626 34.8734 168.542 34.8383 168.458 34.7398C168.359 34.6234 168.247 34.4004 168.167 33.9988C168.088 33.6022 168.049 33.0682 168.065 32.3683C168.097 30.9685 168.349 28.9686 168.896 26.2037Z"
        fill="#D9D9D9" stroke="black" />
    <path
        d="M144.883 123.5C160.702 123.5 173.576 136.391 173.877 152.425C158.322 150.345 148.528 154.842 142.432 162.885C136.3 170.976 133.977 182.57 133.119 194.339C132.56 202.005 132.621 209.82 132.675 216.835C132.705 220.579 132.732 224.095 132.662 227.239C132.562 231.785 132.26 235.538 131.495 238.144C131.113 239.446 130.627 240.416 130.032 241.055C129.452 241.678 128.756 242 127.883 242C126.063 242 124.474 240.991 123.074 239.042C121.669 237.086 120.5 234.239 119.539 230.714C117.617 223.671 116.566 214.08 116.022 203.936C115.207 188.731 115.535 172.378 115.751 161.637C115.823 158.047 115.883 155.084 115.883 153C115.883 136.7 128.874 123.5 144.883 123.5Z"
        fill="#D9D9D9" stroke="black" />
    <mask id="path-7-inside-3_543_155" fill="white">
        <path
            d="M152.63 184.603C153.558 183.714 154.181 182.548 154.421 181.253C154.661 179.958 154.506 178.592 153.976 177.328C153.446 176.064 152.565 174.959 151.445 174.152C150.324 173.345 149.014 172.873 147.68 172.795C146.347 172.717 145.049 173.037 143.952 173.715C142.855 174.392 142.007 175.397 141.516 176.601C141.025 177.805 140.913 179.155 141.194 180.481C141.475 181.806 142.136 183.047 143.094 184.046L147.787 179.549L152.63 184.603Z" />
    </mask>
    <path
        d="M152.63 184.603C153.558 183.714 154.181 182.548 154.421 181.253C154.661 179.958 154.506 178.592 153.976 177.328C153.446 176.064 152.565 174.959 151.445 174.152C150.324 173.345 149.014 172.873 147.68 172.795C146.347 172.717 145.049 173.037 143.952 173.715C142.855 174.392 142.007 175.397 141.516 176.601C141.025 177.805 140.913 179.155 141.194 180.481C141.475 181.806 142.136 183.047 143.094 184.046L147.787 179.549L152.63 184.603Z"
        fill="#D9D9D9" stroke="black" stroke-width="2" mask="url(#path-7-inside-3_543_155)" />
    <mask id="path-8-inside-4_543_155" fill="white">
        <path
            d="M140.339 175.187C138.963 176.607 138.06 178.424 137.744 180.408C137.429 182.392 137.714 184.454 138.566 186.332C139.417 188.211 140.795 189.822 142.527 190.962C144.258 192.103 146.264 192.72 148.292 192.738C150.32 192.755 152.278 192.172 153.919 191.06C155.56 189.949 156.809 188.36 157.51 186.495C158.211 184.63 158.331 182.572 157.856 180.581C157.38 178.59 156.33 176.756 154.839 175.311L147.88 182.493L140.339 175.187Z" />
    </mask>
    <path
        d="M140.339 175.187C138.963 176.607 138.06 178.424 137.744 180.408C137.429 182.392 137.714 184.454 138.566 186.332C139.417 188.211 140.795 189.822 142.527 190.962C144.258 192.103 146.264 192.72 148.292 192.738C150.32 192.755 152.278 192.172 153.919 191.06C155.56 189.949 156.809 188.36 157.51 186.495C158.211 184.63 158.331 182.572 157.856 180.581C157.38 178.59 156.33 176.756 154.839 175.311L147.88 182.493L140.339 175.187Z"
        fill="#D9D9D9" stroke="black" stroke-width="2" mask="url(#path-8-inside-4_543_155)" />
    <path
        d="M180.481 203.01L179.883 202.889V203.5C179.883 214.392 179.268 224.243 178.277 231.362C177.78 234.925 177.193 237.783 176.549 239.74C176.225 240.721 175.897 241.446 175.578 241.916C175.244 242.407 175.004 242.5 174.883 242.5C174.762 242.5 174.521 242.407 174.188 241.916C173.868 241.446 173.54 240.721 173.217 239.74C172.573 237.783 171.985 234.925 171.489 231.362C170.498 224.243 169.883 214.392 169.883 203.5C169.883 192.608 170.498 182.757 171.489 175.638C171.985 172.075 172.573 169.217 173.217 167.26C173.54 166.279 173.868 165.554 174.188 165.084C174.51 164.61 174.745 164.507 174.87 164.5C174.877 164.502 174.896 164.506 174.928 164.516C174.987 164.535 175.069 164.566 175.175 164.613C175.388 164.707 175.671 164.851 176.021 165.046C176.719 165.433 177.654 166.005 178.774 166.732C181.013 168.185 183.968 170.249 187.199 172.681C193.668 177.549 201.213 183.868 206.333 189.705C208.898 192.628 210.821 195.394 211.715 197.77C212.605 200.137 212.435 201.987 211.039 203.291C209.578 204.655 206.654 205.555 201.655 205.609C196.686 205.664 189.779 204.882 180.481 203.01Z"
        fill="#D9D9D9" stroke="black" />
    <path
        d="M156.867 216.796L156.861 216.823L156.859 216.851C156.837 217.108 156.705 217.443 156.425 217.852C156.149 218.255 155.755 218.695 155.262 219.155C154.276 220.074 152.942 221.035 151.508 221.901C150.076 222.767 148.563 223.53 147.228 224.058C145.866 224.596 144.772 224.858 144.141 224.805C143.536 224.753 142.728 224.348 141.821 223.63C140.931 222.925 140.007 221.969 139.178 220.919C138.349 219.869 137.625 218.74 137.127 217.699C136.62 216.641 136.38 215.739 136.432 215.119C136.538 213.872 137.578 212.623 139.501 212.274C141.385 211.933 144.128 212.468 147.507 214.846C147.507 214.928 147.511 215.006 147.519 215.079C147.537 215.232 147.578 215.402 147.674 215.551C147.78 215.717 147.944 215.84 148.152 215.879C148.339 215.915 148.512 215.875 148.642 215.825C148.897 215.729 149.161 215.534 149.41 215.319C149.67 215.094 149.958 214.809 150.261 214.488C150.743 213.98 151.289 213.359 151.856 212.712C152.004 212.545 152.152 212.376 152.302 212.206C153.033 211.377 153.789 210.537 154.51 209.829C155.24 209.113 155.899 208.569 156.435 208.298C156.701 208.164 156.896 208.119 157.028 208.123C157.137 208.127 157.221 208.162 157.305 208.26C157.404 208.377 157.516 208.6 157.596 209.001C157.674 209.398 157.714 209.932 157.698 210.632C157.666 212.031 157.413 214.031 156.867 216.796Z"
        fill="#D9D9D9" stroke="black" />
    <path
        d="M46.5 3.5C62.3198 3.5 75.1935 16.3905 75.4946 32.4253C59.9389 30.3449 50.1454 34.8417 44.0489 42.8855C37.9169 50.976 35.594 62.5702 34.736 74.3386C34.177 82.0051 34.2379 89.82 34.2927 96.8347C34.3219 100.579 34.3493 104.095 34.2797 107.239C34.1791 111.785 33.8771 115.538 33.112 118.144C32.7298 119.446 32.2445 120.416 31.6492 121.055C31.0692 121.678 30.3732 122 29.5 122C27.6806 122 26.0913 120.991 24.6913 119.042C23.2864 117.086 22.1173 114.239 21.1559 110.714C19.2348 103.671 18.1834 94.0802 17.6396 83.9364C16.8245 68.731 17.1528 52.378 17.3684 41.637C17.4405 38.0469 17.5 35.0838 17.5 33C17.5 16.6996 30.4916 3.5 46.5 3.5Z"
        fill="#D9D9D9" stroke="black" />
    <mask id="path-12-inside-5_543_155" fill="white">
        <path
            d="M54.2472 64.6031C55.1754 63.7137 55.7987 62.5477 56.0383 61.2528C56.2779 59.9579 56.123 58.5922 55.5932 57.3283C55.0634 56.0644 54.1825 54.9591 53.062 54.1523C51.9414 53.3454 50.6314 52.8732 49.2978 52.7953C47.9641 52.7175 46.6666 53.0374 45.5694 53.7148C44.4721 54.3922 43.6244 55.3965 43.1335 56.6008C42.6425 57.8051 42.5303 59.1553 42.8111 60.4806C43.0919 61.8059 43.753 63.0468 44.7109 64.0464L49.404 59.5491L54.2472 64.6031Z" />
    </mask>
    <path
        d="M54.2472 64.6031C55.1754 63.7137 55.7987 62.5477 56.0383 61.2528C56.2779 59.9579 56.123 58.5922 55.5932 57.3283C55.0634 56.0644 54.1825 54.9591 53.062 54.1523C51.9414 53.3454 50.6314 52.8732 49.2978 52.7953C47.9641 52.7175 46.6666 53.0374 45.5694 53.7148C44.4721 54.3922 43.6244 55.3965 43.1335 56.6008C42.6425 57.8051 42.5303 59.1553 42.8111 60.4806C43.0919 61.8059 43.753 63.0468 44.7109 64.0464L49.404 59.5491L54.2472 64.6031Z"
        fill="#D9D9D9" stroke="black" stroke-width="2" mask="url(#path-12-inside-5_543_155)" />
    <mask id="path-13-inside-6_543_155" fill="white">
        <path
            d="M41.9567 55.1867C40.5805 56.6071 39.6774 58.4242 39.3617 60.4081C39.0459 62.392 39.3318 64.4536 40.183 66.3322C41.0343 68.2109 42.4127 69.8222 44.144 70.9624C45.8753 72.1026 47.8817 72.7205 49.9095 72.7379C51.9373 72.7553 53.8954 72.1715 55.5362 71.0603C57.177 69.9491 58.4268 68.3604 59.1275 66.4951C59.8283 64.6297 59.9485 62.5716 59.473 60.5809C58.9975 58.5902 57.9477 56.7564 56.4562 55.3113L49.4977 62.4931L41.9567 55.1867Z" />
    </mask>
    <path
        d="M41.9567 55.1867C40.5805 56.6071 39.6774 58.4242 39.3617 60.4081C39.0459 62.392 39.3318 64.4536 40.183 66.3322C41.0343 68.2109 42.4127 69.8222 44.144 70.9624C45.8753 72.1026 47.8817 72.7205 49.9095 72.7379C51.9373 72.7553 53.8954 72.1715 55.5362 71.0603C57.177 69.9491 58.4268 68.3604 59.1275 66.4951C59.8283 64.6297 59.9485 62.5716 59.473 60.5809C58.9975 58.5902 57.9477 56.7564 56.4562 55.3113L49.4977 62.4931L41.9567 55.1867Z"
        fill="#D9D9D9" stroke="black" stroke-width="2" mask="url(#path-13-inside-6_543_155)" />
    <path
        d="M82.0987 83.0098L81.5 82.8893V83.5C81.5 94.392 80.8851 104.243 79.8939 111.362C79.3977 114.925 78.8101 117.783 78.1659 119.74C77.8427 120.721 77.5147 121.446 77.1951 121.916C76.8612 122.407 76.621 122.5 76.5 122.5C76.379 122.5 76.1388 122.407 75.8049 121.916C75.4853 121.446 75.1573 120.721 74.8341 119.74C74.1899 117.783 73.6023 114.925 73.1061 111.362C72.1149 104.243 71.5 94.392 71.5 83.5C71.5 72.608 72.1149 62.7571 73.1061 55.6382C73.6023 52.0751 74.1899 49.2171 74.8341 47.2605C75.1573 46.2787 75.4853 45.5536 75.8049 45.0838C76.1273 44.61 76.3624 44.5069 76.4871 44.5003C76.4948 44.502 76.5132 44.5062 76.545 44.5162C76.6041 44.5349 76.6858 44.5662 76.7925 44.6133C77.0052 44.7072 77.2882 44.8513 77.6381 45.0455C78.3364 45.4332 79.2718 46.0045 80.3918 46.7318C82.6302 48.1855 85.5852 50.249 88.8168 52.6808C95.2855 57.5485 102.83 63.8681 107.951 69.7047C110.515 72.6282 112.439 75.3941 113.332 77.7697C114.222 80.1369 114.053 81.9874 112.656 83.2907C111.195 84.6545 108.271 85.5549 103.272 85.6094C98.3032 85.6635 91.3961 84.8818 82.0987 83.0098Z"
        fill="#D9D9D9" stroke="black" />
    <path
        d="M58.4839 96.7963L58.4785 96.8235L58.4762 96.8511C58.4544 97.1077 58.3222 97.4429 58.0425 97.8519C57.7668 98.255 57.372 98.6948 56.8791 99.1547C55.8938 100.074 54.559 101.035 53.1255 101.901C51.6936 102.767 50.18 103.53 48.8449 104.058C47.4836 104.596 46.3888 104.858 45.7588 104.805C45.1531 104.753 44.345 104.348 43.4381 103.63C42.5478 102.925 41.6245 101.969 40.795 100.919C39.9659 99.8687 39.2423 98.7403 38.7442 97.6993C38.2378 96.6408 37.9969 95.7391 38.0495 95.1187C38.1552 93.8716 39.1954 92.6232 41.1188 92.2743C43.0027 91.9325 45.7454 92.4684 49.1239 94.846C49.1241 94.9277 49.1282 95.0057 49.1367 95.0795C49.1544 95.2322 49.1949 95.402 49.2909 95.5514C49.3973 95.7171 49.5616 95.8396 49.7695 95.8794C49.9565 95.9152 50.1292 95.8746 50.2596 95.8254C50.5143 95.7293 50.7785 95.5338 51.0276 95.3186C51.2874 95.0942 51.5749 94.8088 51.8788 94.4881C52.3606 93.9798 52.906 93.3589 53.4738 92.7125C53.6209 92.545 53.7695 92.3758 53.9189 92.2064C54.6505 91.377 55.4062 90.5365 56.1276 89.8286C56.8574 89.1125 57.5161 88.5685 58.0519 88.2984C58.3188 88.1639 58.5133 88.1192 58.6455 88.1232C58.7546 88.1266 58.8381 88.1617 58.9221 88.2602C59.0213 88.3766 59.1336 88.5996 59.2131 89.0012C59.2916 89.3978 59.3312 89.9318 59.3151 90.6317C59.283 92.0315 59.0307 94.0314 58.4839 96.7963Z"
        fill="#D9D9D9" stroke="black" />
    <path
        d="M67.8801 248.5C52.0603 248.5 39.1866 235.609 38.8855 219.575C54.4412 221.655 64.2347 217.158 70.3312 209.115C76.4632 201.024 78.7861 189.43 79.6442 177.661C80.2031 169.995 80.1422 162.18 80.0875 155.165C80.0583 151.421 80.0308 147.905 80.1004 144.761C80.201 140.215 80.503 136.462 81.2681 133.856C81.6503 132.554 82.1356 131.584 82.731 130.945C83.311 130.322 84.0069 130 84.8801 130C86.6995 130 88.2888 131.009 89.6888 132.958C91.0937 134.914 92.2629 137.761 93.2242 141.286C95.1453 148.329 96.1967 157.92 96.7405 168.064C97.5556 183.269 97.2273 199.622 97.0117 210.363C96.9396 213.953 96.8801 216.916 96.8801 219C96.8801 235.3 83.8885 248.5 67.8801 248.5Z"
        fill="#D9D9D9" stroke="black" />
    <mask id="path-17-inside-7_543_155" fill="white">
        <path
            d="M60.1329 187.397C59.2047 188.286 58.5814 189.452 58.3419 190.747C58.1023 192.042 58.2572 193.408 58.7869 194.672C59.3167 195.936 60.1976 197.041 61.3182 197.848C62.4387 198.655 63.7487 199.127 65.0824 199.205C66.416 199.283 67.7135 198.963 68.8107 198.285C69.908 197.608 70.7557 196.603 71.2467 195.399C71.7376 194.195 71.8498 192.845 71.569 191.519C71.2882 190.194 70.6271 188.953 69.6692 187.954L64.9762 192.451L60.1329 187.397Z" />
    </mask>
    <path
        d="M60.1329 187.397C59.2047 188.286 58.5814 189.452 58.3419 190.747C58.1023 192.042 58.2572 193.408 58.7869 194.672C59.3167 195.936 60.1976 197.041 61.3182 197.848C62.4387 198.655 63.7487 199.127 65.0824 199.205C66.416 199.283 67.7135 198.963 68.8107 198.285C69.908 197.608 70.7557 196.603 71.2467 195.399C71.7376 194.195 71.8498 192.845 71.569 191.519C71.2882 190.194 70.6271 188.953 69.6692 187.954L64.9762 192.451L60.1329 187.397Z"
        fill="#D9D9D9" stroke="black" stroke-width="2" mask="url(#path-17-inside-7_543_155)" />
    <mask id="path-18-inside-8_543_155" fill="white">
        <path
            d="M72.4234 196.813C73.7997 195.393 74.7027 193.576 75.0185 191.592C75.3342 189.608 75.0483 187.546 74.1971 185.668C73.3458 183.789 71.9674 182.178 70.2361 181.038C68.5048 179.897 66.4984 179.28 64.4706 179.262C62.4428 179.245 60.4847 179.828 58.844 180.94C57.2032 182.051 55.9534 183.64 55.2526 185.505C54.5519 187.37 54.4316 189.428 54.9071 191.419C55.3826 193.41 56.4325 195.244 57.9239 196.689L64.8825 189.507L72.4234 196.813Z" />
    </mask>
    <path
        d="M72.4234 196.813C73.7997 195.393 74.7027 193.576 75.0185 191.592C75.3342 189.608 75.0483 187.546 74.1971 185.668C73.3458 183.789 71.9674 182.178 70.2361 181.038C68.5048 179.897 66.4984 179.28 64.4706 179.262C62.4428 179.245 60.4847 179.828 58.844 180.94C57.2032 182.051 55.9534 183.64 55.2526 185.505C54.5519 187.37 54.4316 189.428 54.9071 191.419C55.3826 193.41 56.4325 195.244 57.9239 196.689L64.8825 189.507L72.4234 196.813Z"
        fill="#D9D9D9" stroke="black" stroke-width="2" mask="url(#path-18-inside-8_543_155)" />
    <path
        d="M32.2814 168.99L32.8801 169.111V168.5C32.8801 157.608 33.495 147.757 34.4863 140.638C34.9824 137.075 35.5701 134.217 36.2142 132.26C36.5374 131.279 36.8654 130.554 37.1851 130.084C37.5189 129.593 37.7591 129.5 37.8801 129.5C38.0011 129.5 38.2413 129.593 38.5752 130.084C38.8949 130.554 39.2229 131.279 39.546 132.26C40.1902 134.217 40.7779 137.075 41.274 140.638C42.2652 147.757 42.8801 157.608 42.8801 168.5C42.8801 179.392 42.2652 189.243 41.274 196.362C40.7779 199.925 40.1902 202.783 39.546 204.74C39.2229 205.721 38.8949 206.446 38.5752 206.916C38.2528 207.39 38.0177 207.493 37.893 207.5C37.8854 207.498 37.8669 207.494 37.8351 207.484C37.776 207.465 37.6943 207.434 37.5877 207.387C37.3749 207.293 37.0919 207.149 36.742 206.954C36.0437 206.567 35.1083 205.995 33.9883 205.268C31.7499 203.815 28.7949 201.751 25.5634 199.319C19.0947 194.451 11.5497 188.132 6.42941 182.295C3.8648 179.372 1.94134 176.606 1.0482 174.23C0.158237 171.863 0.327606 170.013 1.72384 168.709C3.18487 167.345 6.10931 166.445 11.1077 166.391C16.077 166.336 22.9841 167.118 32.2814 168.99Z"
        fill="#D9D9D9" stroke="black" />
    <path
        d="M55.8962 155.204L55.9016 155.177L55.904 155.149C55.9257 154.892 56.0579 154.557 56.3377 154.148C56.6134 153.745 57.0081 153.305 57.501 152.845C58.4864 151.926 59.8211 150.965 61.2546 150.099C62.6865 149.233 64.2001 148.47 65.5352 147.942C66.8966 147.404 67.9913 147.142 68.6214 147.195C69.2271 147.247 70.0351 147.652 70.942 148.37C71.8323 149.075 72.7557 150.031 73.5851 151.081C74.4143 152.131 75.1378 153.26 75.6359 154.301C76.1424 155.359 76.3832 156.261 76.3306 156.881C76.2249 158.128 75.1847 159.377 73.2614 159.726C71.3774 160.067 68.6348 159.532 65.2562 157.154C65.256 157.072 65.2519 156.994 65.2434 156.921C65.2257 156.768 65.1852 156.598 65.0892 156.449C64.9828 156.283 64.8185 156.16 64.6106 156.121C64.4236 156.085 64.2509 156.125 64.1205 156.175C63.8659 156.271 63.6017 156.466 63.3525 156.681C63.0927 156.906 62.8053 157.191 62.5013 157.512C62.0195 158.02 61.4741 158.641 60.9063 159.288C60.7592 159.455 60.6106 159.624 60.4612 159.794C59.7296 160.623 58.9739 161.463 58.2525 162.171C57.5227 162.887 56.864 163.431 56.3282 163.702C56.0614 163.836 55.8668 163.881 55.7346 163.877C55.6255 163.873 55.542 163.838 55.458 163.74C55.3588 163.623 55.2466 163.4 55.167 162.999C55.0885 162.602 55.049 162.068 55.065 161.368C55.0971 159.969 55.3495 157.969 55.8962 155.204Z"
        fill="#D9D9D9" stroke="black" />
</svg>