<svg width="103" height="24" viewBox="0 0 103 24" fill="none" xmlns="http://www.w3.org/2000/svg">
    <path
        d="M12.2137 2.63604V4.7825H3.42482V11.599H10.5604V13.7454H3.42482V22.8534H0.785243V2.63604H12.2137ZM29.4988 6.95797V22.8534H26.8592V20.5039C26.3564 21.3161 25.6506 21.9542 24.7417 22.4183C23.8522 22.8631 22.866 23.0855 21.7831 23.0855C20.5455 23.0855 19.4336 22.8341 18.4474 22.3313C17.4611 21.8092 16.678 21.0357 16.0978 20.0108C15.5371 18.9859 15.2567 17.7386 15.2567 16.269V6.95797H17.8672V15.9209C17.8672 17.4873 18.2636 18.6959 19.0565 19.5467C19.8493 20.3782 20.9322 20.794 22.3052 20.794C23.7168 20.794 24.8287 20.3589 25.6409 19.4887C26.4531 18.6185 26.8592 17.3519 26.8592 15.6889V6.95797H29.4988Z"
        fill="#4EA842" />
    <path
        d="M44.9779 11.1059V13.3394H33.4044V11.1059H44.9779ZM65.508 2.63604V22.8534H62.8685V13.6874H52.5712V22.8534H49.9316V2.63604H52.5712V11.512H62.8685V2.63604H65.508ZM71.3784 4.37642C70.8756 4.37642 70.4502 4.20238 70.1021 3.8543C69.754 3.50623 69.58 3.0808 69.58 2.57802C69.58 2.07525 69.754 1.64982 70.1021 1.30175C70.4502 0.953672 70.8756 0.779635 71.3784 0.779635C71.8618 0.779635 72.2679 0.953672 72.5967 1.30175C72.9447 1.64982 73.1188 2.07525 73.1188 2.57802C73.1188 3.0808 72.9447 3.50623 72.5967 3.8543C72.2679 4.20238 71.8618 4.37642 71.3784 4.37642ZM72.6547 6.95797V22.8534H70.0151V6.95797H72.6547ZM79.7929 9.53954C80.257 8.63067 80.9145 7.92485 81.7654 7.42208C82.6356 6.9193 83.6895 6.66791 84.9271 6.66791V9.3945H84.2309C81.2723 9.3945 79.7929 10.9995 79.7929 14.2095V22.8534H77.1534V6.95797H79.7929V9.53954ZM102.477 14.2966C102.477 14.7993 102.448 15.3311 102.39 15.8919H89.6854C89.7821 17.4583 90.3139 18.6862 91.2808 19.5757C92.267 20.4459 93.4563 20.881 94.8486 20.881C95.9895 20.881 96.937 20.6199 97.6912 20.0978C98.4647 19.5564 99.0061 18.8409 99.3155 17.9514H102.158C101.733 19.479 100.882 20.7263 99.6056 21.6932C98.3293 22.6407 96.7436 23.1145 94.8486 23.1145C93.3402 23.1145 91.9866 22.7761 90.7877 22.0993C89.6081 21.4224 88.6799 20.4652 88.0031 19.2276C87.3263 17.9707 86.9879 16.5204 86.9879 14.8767C86.9879 13.233 87.3166 11.7924 87.9741 10.5548C88.6316 9.31715 89.5501 8.36961 90.7297 7.71214C91.9286 7.03533 93.3016 6.69692 94.8486 6.69692C96.3569 6.69692 97.6912 7.02566 98.8514 7.68313C100.012 8.34061 100.901 9.24947 101.52 10.4097C102.158 11.5506 102.477 12.8463 102.477 14.2966ZM99.7506 13.7454C99.7506 12.7399 99.5283 11.8794 99.0835 11.1639C98.6387 10.4291 98.0296 9.87794 97.2561 9.51053C96.5019 9.12378 95.6607 8.9304 94.7325 8.9304C93.3983 8.9304 92.2573 9.35583 91.3098 10.2067C90.3816 11.0575 89.8498 12.2371 89.7145 13.7454H99.7506Z"
        fill="#232B2B" />
</svg>