<svg width="857" height="994" viewBox="0 0 857 994" fill="none" xmlns="http://www.w3.org/2000/svg">
<path d="M857 474.5C728.548 442.671 621.45 416.997 532.772 396.666C491.167 444.643 446.309 493.922 400.573 542.613C425.689 666.361 244.981 844.442 -56 994C-56 994 182.286 775.005 400.573 542.613C393.199 506.278 368.081 474.628 323.053 449.759C151.516 355.018 -33.8398 266.765 532.772 396.666C581.91 340.002 626.51 285.154 662.658 235.24C543.925 115.575 456.06 14.0875 679.5 0.49986C799.22 -6.78043 764.461 94.6659 662.658 235.24C740.538 313.732 831.699 400.044 857 474.5Z" fill="#50FF50"/>
</svg>
